<?xml version="1.0" encoding="UTF-8" standalone="no"?>
<svg width="180" height="140" viewBox="0 0 180 140" xmlns="http://www.w3.org/2000/svg">
  <!-- 渲染猫咪 432706108221936 -->
  
  <!-- Gradient definitions -->
  <defs>
    <linearGradient
      id="cat-body-gradient-cat-gene-1"
      x1="0%"
      y1="0%"
      x2="100%"
      y2="100%"
    >
      <stop
        offset="0%"
        style="stop-color:#ffff99;stop-opacity:1"
      />
      <stop
        offset="100%"
        style="stop-color:#e6e600;stop-opacity:1"
      />
    </linearGradient>

    <linearGradient
      id="cat-head-gradient-cat-gene-1"
      x1="0%"
      y1="0%"
      x2="100%"
      y2="100%"
    >
      <stop
        offset="0%"
        style="stop-color:#ffff99;stop-opacity:1"
      />
      <stop
        offset="100%"
        style="stop-color:#e6e600;stop-opacity:1"
      />
    </linearGradient>

    
    <pattern
      id="cat-pattern-cat-gene-1"
      width="20"
      height="20"
      patternUnits="userSpaceOnUse"
    >
      <rect
        width="20"
        height="20"
        fill="none"
      />
      
      
      
    </pattern>
  </defs>

  <!-- Cat body -->
  <ellipse
    class="cat-body"
    cx="90"
    cy="95"
    rx="55"
    ry="40"
    fill="url(#cat-pattern-cat-gene-1)"
    stroke="#e6e600"
    stroke-width="3"
  />

  <!-- Cat head -->
  <circle
    class="cat-head"
    cx="90"
    cy="60"
    r="38"
    fill="url(#cat-pattern-cat-gene-1)"
    stroke="#e6e600"
    stroke-width="3"
  />

  <!-- Tail -->
  <path
    class="cat-tail"
    d="M30,90 Q35,60 45,80 Q55,95 40,105"
    fill="url(#cat-pattern-cat-gene-1)"
    stroke="#e6e600"
    stroke-width="3"
    stroke-linecap="round"
  />

  <!-- Ears -->
  <path
    class="cat-body"
    d="M65,35 Q55,20 60,10 Q70,5 80,15 Q85,25 85,30"
    fill="url(#cat-pattern-cat-gene-1)"
    stroke="#e6e600"
    stroke-width="3"
  />
  <path
    class="cat-body"
    d="M115,35 Q125,20 120,10 Q110,5 100,15 Q95,25 95,30"
    fill="url(#cat-pattern-cat-gene-1)"
    stroke="#e6e600"
    stroke-width="3"
  />

  <!-- Inner ears -->
  <path
    class="cat-body"
    d="M67,30 Q60,20 62,15 Q70,10 75,18 Q78,25 80,28"
    fill="#ffffb3"
  />
  <path
    class="cat-body"
    d="M113,30 Q120,20 118,15 Q110,10 105,18 Q102,25 100,28"
    fill="#ffffb3"
  />

  <!-- Cheeks -->
  <ellipse
    class="cat-body"
    cx="65"
    cy="70"
    rx="12"
    ry="10"
    fill="#ffffb3"
    opacity="0.6"
  />
  <ellipse
    class="cat-body"
    cx="115"
    cy="70"
    rx="12"
    ry="10"
    fill="#ffffb3"
    opacity="0.6"
  />

  <!-- Eyes -->
  <g class="cat-eyes">
    <ellipse
      cx="75"
      cy="55"
      rx="9"
      ry="11"
      fill="white"
      stroke="#333"
      stroke-width="1.5"
    />
    <ellipse
      cx="105"
      cy="55"
      rx="9"
      ry="11"
      fill="white"
      stroke="#333"
      stroke-width="1.5"
    />

    <!-- Eye highlights -->
    <circle
      cx="73"
      cy="51"
      r="3"
      fill="white"
    />
    <circle
      cx="103"
      cy="51"
      r="3"
      fill="white"
    />

    <!-- Pupils -->
    <ellipse
      cx="75"
      cy="55"
      rx="4"
      ry="8"
      fill="#9C27B0"
    />
    <ellipse
      cx="105"
      cy="55"
      rx="4"
      ry="8"
      fill="#9C27B0"
    />
  </g>

  <!-- Nose -->
  <path
    class="cat-body"
    d="M87,65 Q90,67 93,65 L93,68 Q90,70 87,68 Z"
    fill="#ff9999"
    stroke="#d67979"
    stroke-width="0.5"
  />

  <!-- Mouth -->
  <path
    class="cat-body"
    d="M85,72 Q90,77 95,72"
    fill="none"
    stroke="#333"
    stroke-width="1.5"
  />
  <path
    class="cat-body"
    d="M90,68 L90,72"
    fill="none"
    stroke="#333"
    stroke-width="1"
  />

  <!-- Gene Info -->

</svg>